<svg width="120" height="120" viewBox="0 0 120 120" fill="none" xmlns="http://www.w3.org/2000/svg">
<g id="In progress">
<g id="colors/@aqua">
<mask id="mask0_9532_26876" style="mask-type:luminance" maskUnits="userSpaceOnUse" x="0" y="0" width="120" height="120">
<path id="Mask" d="M101.788 0C102.89 7.85128e-05 103.784 0.895556 103.784 2V6H117.755C118.857 6.00011 119.751 6.89558 119.751 8V16C119.751 17.1054 118.857 17.9999 117.755 18H103.784V20C103.784 21.1054 102.89 21.9999 101.788 22H97.7959V116H101.349C99.9443 114.464 99.4456 112.302 100.034 110.303C100.622 108.305 102.211 106.76 104.224 106.232C103.209 103.726 103.993 100.85 106.139 99.208C108.284 97.5666 111.259 97.5665 113.404 99.208C115.55 100.85 116.334 103.726 115.319 106.232C117.332 106.76 118.921 108.305 119.509 110.303C120.097 112.302 119.599 114.464 118.194 116H119.751V120H0V116H1.16992L10.5635 106.587C11.343 105.806 12.6061 105.806 13.3857 106.587L22.7803 116H25.9463V26H29.9375V34H55.8838V38H29.9375V44H41.9131V42H45.9043V44H57.8799V40H61.8711V44H73.8457V36H77.8379V116H85.8213V22H81.8291C80.7271 21.9998 79.834 21.1053 79.834 20V18H11.9746V54.3428C13.8554 55 15.2842 56.5567 15.7793 58.4902C16.2753 60.4238 15.7726 62.4785 14.4395 63.9629L19.5586 70.8008L19.5332 70.8203C19.8002 71.1562 19.9492 71.5713 19.958 72V80C19.958 80.5312 19.7481 81.0391 19.374 81.4141L15.3818 85.4141C15.0076 85.789 14.4998 86 13.9707 86H5.9873C5.45821 85.9999 4.95034 85.789 4.57617 85.4141L0.584961 81.4141C0.210741 81.0391 0 80.5312 0 80V72C0.00877039 71.5713 0.157805 71.1562 0.424805 70.8203L0.399414 70.8008L5.51855 63.9629C4.54019 62.875 3.99706 61.4638 3.99121 60H7.9834C7.9834 61.1055 8.8773 62 9.97949 62C11.0816 61.9998 11.9746 61.1054 11.9746 60C11.9746 58.9647 11.1898 58.1133 10.1836 58.0107L9.77539 57.9893C8.76894 57.887 7.9834 57.0364 7.9834 56V18H1.99609C0.893898 18 0 17.1055 0 16V8C0 6.89551 0.893898 6 1.99609 6H79.834V2C79.834 0.895648 80.7271 0.000227251 81.8291 0H101.788ZM6.8125 116H17.1348L11.9736 110.828L6.8125 116ZM29.9375 116H73.8457V72H59.875C59.3518 71.999 58.8497 71.791 58.4775 71.4229L51.0713 64.084H43.9082C42.8062 64.0838 41.9131 63.1893 41.9131 62.084V55.334H29.9375V116ZM89.8125 116H93.4043L89.8125 110.601V116ZM105.781 110C104.679 110 103.785 110.896 103.785 112C103.785 113.105 104.679 114 105.781 114C106.883 114 107.776 113.105 107.776 112C107.776 110.896 106.883 110 105.781 110ZM113.762 110C112.66 110 111.766 110.896 111.766 112C111.766 113.105 112.66 114 113.762 114C114.864 114 115.757 113.105 115.757 112C115.757 110.896 114.864 110 113.762 110ZM37.9209 112H33.9297V108H37.9209V112ZM45.9053 112H41.9141V108H45.9053V112ZM53.8857 112H49.8945V108H53.8857V112ZM61.8701 112H57.8789V108H61.8701V112ZM69.8545 112H65.8633V108H69.8545V112ZM90.2109 104L93.8027 109.4V98.6006L90.2109 104ZM109.773 102C108.671 102 107.777 102.896 107.777 104C107.777 105.105 108.671 106 109.773 106C110.876 106 111.769 105.105 111.769 104C111.769 102.896 110.876 102 109.773 102ZM37.9209 104H33.9297V100H37.9209V104ZM45.9053 104H41.9141V100H45.9053V104ZM53.8857 104H49.8945V100H53.8857V104ZM61.8701 104H57.8789V100H61.8701V104ZM69.8545 104H65.8633V100H69.8545V104ZM89.8125 97.4004L93.4043 92L89.8125 86.6006V97.4004ZM37.9209 96H33.9297V92H37.9209V96ZM45.9053 96H41.9141V92H45.9053V96ZM53.8857 96H49.8945V92H53.8857V96ZM61.8701 96H57.8789V92H61.8701V96ZM69.8545 96H65.8633V92H69.8545V96ZM37.9209 88H33.9297V84H37.9209V88ZM45.9053 88H41.9141V84H45.9053V88ZM53.8857 88H49.8945V84H53.8857V88ZM61.8701 88H57.8789V84H61.8701V88ZM69.8545 88H65.8633V84H69.8545V88ZM90.2109 80L93.8027 85.3887V74.6006L90.2109 80ZM3.99219 79.1729L6.81445 82H13.1445L15.9668 79.1729V74H3.99219V79.1729ZM37.9209 80H33.9297V76H37.9209V80ZM45.9053 80H41.9141V76H45.9053V80ZM53.8857 80H49.8945V76H53.8857V80ZM61.8701 80H57.8789V76H61.8701V80ZM69.8545 80H65.8633V76H69.8545V80ZM89.8125 73.4004L93.4043 68L89.8125 62.6006V73.4004ZM37.9209 72H33.9297V68H37.9209V72ZM45.9053 72H41.9141V68H45.9053V72ZM53.8857 72H49.8945V68H53.8857V72ZM8.98242 66L5.98828 70H13.9717L10.9775 66H8.98242ZM61.8711 68H73.8457V48H61.8711V68ZM45.9062 48V60.0762H51.8936C52.4168 60.0781 52.9188 60.2862 53.291 60.6543L57.8809 65.2002V48H45.9062ZM90.2109 56L93.8027 61.4004V50.6006L90.2109 56ZM29.9375 51.334H41.9131V48H29.9375V51.334ZM89.8125 49.4004L93.4043 44L89.8125 38.6006V49.4004ZM90.2109 32L93.8027 37.4004V26.6006L90.2109 32ZM89.8125 22V25.4004L92.0713 22H89.8125ZM95.7988 4V14C95.7988 15.1054 94.9058 15.9998 93.8037 16H83.8242V18H99.791V4H95.7988ZM3.99219 14H11.377L5.38965 10H3.99219V14ZM24.5469 14H35.3252L29.9365 10.4004L24.5469 14ZM48.5 14H59.2783L53.8896 10.4004L48.5 14ZM78.4365 10L72.4492 14H79.834V10H78.4365ZM110.371 14H115.76V10.4004L110.371 14ZM17.9639 13.6006L23.3525 10H12.5742L17.9639 13.6006ZM36.5234 10L41.9131 13.6006L47.3018 10H36.5234ZM60.4727 10L65.8613 13.6006L71.251 10H60.4727ZM103.785 10V13.6006L109.174 10H103.785ZM83.8242 12H91.8076V4H83.8242V12Z" fill="white"/>
</mask>
<g mask="url(#mask0_9532_26876)">
<g id="colors/@aqua_2">
<rect id="Rectangle Copy 9" x="-5.09375" y="-3.46191" width="132" height="130" fill="#00C5CA"/>
</g>
</g>
</g>
</g>
</svg>
