<svg width="16" height="16" viewBox="0 0 16 16" fill="none" xmlns="http://www.w3.org/2000/svg">
<path fill-rule="evenodd" clip-rule="evenodd" d="M6 11.3333L8 9.37329C7.74 9.34663 7.54667 9.33329 7.33333 9.33329C5.55333 9.33329 2 10.2266 2 12V13.3333H8L6 11.3333ZM7.33333 7.99996C8.80667 7.99996 10 6.80663 10 5.33329C10 3.85996 8.80667 2.66663 7.33333 2.66663C5.86 2.66663 4.66667 3.85996 4.66667 5.33329C4.66667 6.80663 5.86 7.99996 7.33333 7.99996Z" fill="#5517E3"/>
<path fill-rule="evenodd" clip-rule="evenodd" d="M10.3133 13.6666L8 11.3333L8.93333 10.3933L10.3133 11.78L13.7333 8.33329L14.6667 9.27329L10.3133 13.6666Z" fill="#5517E3"/>
</svg>
