<svg width="80" height="80" viewBox="0 0 80 80" fill="none" xmlns="http://www.w3.org/2000/svg">
<mask id="mask0_2462_28553" style="mask-type:luminance" maskUnits="userSpaceOnUse" x="6" y="2" width="71" height="75">
<path fill-rule="evenodd" clip-rule="evenodd" d="M64.0013 5.33329C64.0013 3.86053 62.8074 2.66663 61.3346 2.66663H18.668C17.1952 2.66663 16.0013 3.86053 16.0013 5.33329V6.66663C16.0013 8.13939 17.1952 9.33329 18.668 9.33329H20.0013V11.0863C20.0013 20.5507 25.3926 29.1981 33.9143 33.3876C35.4958 34.1659 36.523 35.7439 36.523 37.5014V41.8318C36.523 43.5894 35.4958 45.1673 33.9143 45.9456C25.3926 50.1351 20.0013 58.7802 20.0013 68.247V70H18.668C17.1952 70 16.0013 71.1939 16.0013 72.6666V74C16.0013 75.4727 17.1952 76.6666 18.668 76.6666H61.3346C62.8074 76.6666 64.0013 75.4727 64.0013 74V72.6666C64.0013 71.1939 62.8074 70 61.3346 70H60.0013V68.247C60.0013 58.7826 54.61 50.1351 46.0883 45.9456C44.5068 45.1673 43.4796 43.5894 43.4796 41.8318V37.5014C43.4796 35.7439 44.5045 34.1659 46.0883 33.3876C54.61 29.1981 60.0013 20.553 60.0013 11.0863V9.33329H61.3346C62.8074 9.33329 64.0013 8.13939 64.0013 6.66663V5.33329ZM20.0013 72L18.668 72C18.3261 72 18.0443 72.2573 18.0058 72.5889L18.0013 72.6666V74C18.0013 74.3419 18.2587 74.6236 18.5902 74.6621L18.668 74.6666H61.3346C61.6765 74.6666 61.9583 74.4093 61.9968 74.0777L62.0013 74V72.6666C62.0013 72.3247 61.7439 72.043 61.4124 72.0044L61.3346 72L60.0013 72H20.0013ZM60.0013 7.33329H20.0013H18.668L18.5902 7.32881C18.2587 7.2903 18.0013 7.00852 18.0013 6.66663V5.33329L18.0058 5.25555C18.0443 4.92399 18.3261 4.66663 18.668 4.66663H61.3346L61.4124 4.67111C61.7439 4.70962 62.0013 4.9914 62.0013 5.33329V6.66663L61.9968 6.74437C61.9583 7.07593 61.6765 7.33329 61.3346 7.33329H60.0013ZM57.6825 9.64282H22.3201V11.0863C22.3201 19.6731 27.2001 27.4931 34.9288 31.2946C37.3033 32.4609 38.8419 34.864 38.8419 37.5014V41.8318C38.8419 44.467 37.3033 46.8723 34.9288 48.0387C27.2001 51.8424 22.3201 59.6602 22.3201 68.247V69.6904H22.9002C23.1218 68.316 23.962 63.3846 24.9346 61.2515C28.1362 54.2295 33.6628 50.7185 40.1051 50.7185C46.56 50.7185 52.0927 54.2432 55.2943 61.2925C56.2592 63.4171 57.0906 68.3204 57.3103 69.6904H57.6825V68.247C57.6825 59.6602 52.8025 51.8401 45.0738 48.0387C42.6993 46.8747 41.1607 44.4693 41.1607 41.8318V37.5014C41.1607 34.864 42.7016 32.4609 45.0738 31.2946C52.8025 27.4908 57.6825 19.6731 57.6825 11.0863V9.64282ZM40.0013 46.6666C39.2654 46.6666 38.668 47.264 38.668 48C38.668 48.7359 39.2654 49.3333 40.0013 49.3333C40.7372 49.3333 41.3346 48.7359 41.3346 48C41.3346 47.264 40.7372 46.6666 40.0013 46.6666ZM54.7967 13.3631C54.1524 13.3551 53.6236 13.8709 53.6155 14.5152C53.5882 16.7088 52.7901 18.7875 51.3603 20.3499C50.9253 20.8252 50.958 21.5632 51.4334 21.9982C51.9087 22.4332 52.6467 22.4005 53.0817 21.9251C54.9043 19.9335 55.9143 17.3027 55.9487 14.5443C55.9567 13.9 55.441 13.3712 54.7967 13.3631ZM11.9855 35.3262C12.72 35.3262 13.3152 34.7304 13.3152 33.995V32.6645C13.3152 31.9291 12.72 31.3333 11.9855 31.3333C11.2516 31.3333 10.6564 31.9291 10.6564 32.6645V33.995C10.6564 34.7304 11.2516 35.3262 11.9855 35.3262ZM7.99765 37.988H9.32673C10.0612 37.988 10.6564 37.3921 10.6564 36.6574C10.6564 35.9221 10.0612 35.3262 9.32673 35.3262H7.99765C7.26313 35.3262 6.66797 35.9221 6.66797 36.6574C6.66797 37.3921 7.26313 37.988 7.99765 37.988ZM15.9739 35.3262H14.6442C13.9103 35.3262 13.3152 35.9221 13.3152 36.6574C13.3152 37.3921 13.9103 37.988 14.6442 37.988H15.9739C16.7078 37.988 17.3036 37.3921 17.3036 36.6574C17.3036 35.9221 16.7078 35.3262 15.9739 35.3262ZM10.6564 39.3192C10.6564 38.5838 11.2516 37.988 11.9855 37.988C12.72 37.988 13.3152 38.5838 13.3152 39.3192V40.6497C13.3152 41.3851 12.72 41.9809 11.9855 41.9809C11.2516 41.9809 10.6564 41.3851 10.6564 40.6497V39.3192ZM72.9071 6.97367C72.9071 7.7082 72.312 8.30336 71.5775 8.30336C70.8435 8.30336 70.2484 7.7082 70.2484 6.97367V5.6446C70.2484 4.91008 70.8435 4.31491 71.5775 4.31491C72.312 4.31491 72.9071 4.91008 72.9071 5.6446V6.97367ZM68.9187 10.9621H67.5896C66.8551 10.9621 66.2599 10.367 66.2599 9.63304C66.2599 8.89852 66.8551 8.30336 67.5896 8.30336H68.9187C69.6532 8.30336 70.2484 8.89852 70.2484 9.63304C70.2484 10.367 69.6532 10.9621 68.9187 10.9621ZM74.2362 8.30336H75.5659C76.2998 8.30336 76.8956 8.89852 76.8956 9.63304C76.8956 10.367 76.2998 10.9621 75.5659 10.9621H74.2362C73.5023 10.9621 72.9071 10.367 72.9071 9.63304C72.9071 8.89852 73.5023 8.30336 74.2362 8.30336ZM71.5775 10.9621C70.8435 10.9621 70.2484 11.5573 70.2484 12.2918V13.6209C70.2484 14.3554 70.8435 14.9506 71.5775 14.9506C72.312 14.9506 72.9071 14.3554 72.9071 13.6209V12.2918C72.9071 11.5573 72.312 10.9621 71.5775 10.9621ZM70.0966 61.8281C70.8311 61.8281 71.4262 61.2323 71.4262 60.4969V59.1663C71.4262 58.431 70.8311 57.8352 70.0966 57.8352C69.3626 57.8352 68.7675 58.431 68.7675 59.1663V60.4969C68.7675 61.2323 69.3626 61.8281 70.0966 61.8281ZM66.1087 64.4898H67.4378C68.1723 64.4898 68.7675 63.894 68.7675 63.1593C68.7675 62.4239 68.1723 61.8281 67.4378 61.8281H66.1087C65.3742 61.8281 64.779 62.4239 64.779 63.1593C64.779 63.894 65.3742 64.4898 66.1087 64.4898ZM74.085 61.8281H72.7553C72.0214 61.8281 71.4262 62.4239 71.4262 63.1593C71.4262 63.894 72.0214 64.4898 72.7553 64.4898H74.085C74.8189 64.4898 75.4147 63.894 75.4147 63.1593C75.4147 62.4239 74.8189 61.8281 74.085 61.8281ZM68.7675 65.821C68.7675 65.0857 69.3626 64.4898 70.0966 64.4898C70.8311 64.4898 71.4262 65.0857 71.4262 65.821V67.1516C71.4262 67.887 70.8311 68.4828 70.0966 68.4828C69.3626 68.4828 68.7675 67.887 68.7675 67.1516V65.821Z" fill="white"/>
</mask>
<g mask="url(#mask0_2462_28553)">
<rect x="-6.01562" y="-2" width="95.3333" height="95.3333" fill="#00C5CA"/>
</g>
</svg>