<?xml version="1.0" encoding="UTF-8"?>
<svg width="74px" height="98px" viewBox="0 0 74 98" version="1.1" xmlns="http://www.w3.org/2000/svg" xmlns:xlink="http://www.w3.org/1999/xlink">
    <title>F7B5A68D-A43F-40ED-9711-0084CBD7E45C</title>
    <defs>
        <path d="M71.0696124,0.217994011 C72.0163201,0.217994011 72.7838982,0.985572082 72.7838982,1.93227973 L72.7838982,1.93227973 L72.7838982,94.5037083 C72.7838982,95.4504159 72.0163201,96.217994 71.0696124,96.217994 L71.0696124,96.217994 L2.49818387,96.217994 C1.55147623,96.217994 0.783898158,95.4504159 0.783898158,94.5037083 L0.783898158,94.5037083 L0.783898158,25.9322797 C0.783898158,25.8979606 0.803150401,25.8686637 0.803150401,25.8360185 C0.812357872,25.6761414 0.845003015,25.5179382 0.898574444,25.3664315 C0.914478515,25.3203935 0.922849158,25.2743557 0.941264229,25.2291547 C1.01408794,25.0592328 1.11453437,24.9027037 1.2384183,24.7645899 L1.2384183,24.7645899 L23.5241326,0.764589939 C23.530829,0.756219511 23.5492441,0.744500654 23.5492441,0.744500654 C23.5844004,0.713529725 23.6203936,0.685070011 23.6572242,0.658284296 C23.7735744,0.553652439 23.9041548,0.465761868 24.0447798,0.397960582 C24.1008624,0.372848868 24.1577821,0.351085582 24.2163757,0.332670296 C24.3670456,0.278261868 24.5244114,0.246453725 24.6842887,0.238920339 C24.7186079,0.237246254 24.7479048,0.217994011 24.7838982,0.217994011 L24.7838982,0.217994011 Z M69.3553267,3.64656544 L26.4981839,3.64656544 L26.4981839,25.9322797 C26.4981839,26.8789874 25.7306058,27.6465654 24.7838982,27.6465654 L24.7838982,27.6465654 L4.21246959,27.6465654 L4.21246959,92.7894226 L69.3553267,92.7894226 L69.3553267,3.64656544 Z M36.7838982,56.7893563 C43.076867,56.7710073 48.7453936,60.592157 51.0899808,66.4322797 C51.3243558,67.0006392 51.235628,67.6518667 50.858954,68.1373578 C50.4814428,68.6236859 49.8720678,68.8697797 49.2635298,68.7827262 C48.6541548,68.6965096 48.1385298,68.2897017 47.9116884,67.717994 C46.079378,63.1811637 41.6764762,60.2104606 36.7838982,60.2104606 C31.8913201,60.2104606 27.4884183,63.1811637 25.6561079,67.717994 C25.2970119,68.5893667 24.3025923,69.0070565 23.4287084,68.65382 C22.5556614,68.3005833 22.1304384,67.3078379 22.4778155,66.4322797 C24.8224027,60.592157 30.4909293,56.7710073 36.7838982,56.7893563 Z M18.3025923,35.1448914 C18.8935522,34.4057731 19.9733512,34.2860744 20.7124696,34.8770343 L20.7124696,34.8770343 L29.2838982,41.7341772 C29.3081727,41.7534292 29.3165433,41.7827262 29.3391436,41.8028154 C29.4621905,41.9183287 29.5676594,42.0505833 29.6505277,42.1970677 C29.6932173,42.2514762 29.7317219,42.3092328 29.765204,42.3686637 C29.9803267,42.8148132 29.9803267,43.3354606 29.765204,43.7816101 C29.7308849,43.8410409 29.6923803,43.8979606 29.6505277,43.953206 C29.5676594,44.0988534 29.4621905,44.2311078 29.3391436,44.3457843 C29.3165433,44.3658736 29.3081727,44.3951703 29.2838982,44.4135856 L29.2838982,44.4135856 L20.7124696,51.2707284 C19.9733512,51.8625252 18.8935522,51.7428267 18.3025923,51.0037083 C17.7107956,50.2645899 17.8304941,49.1847909 18.5696124,48.593831 L18.5696124,48.593831 L23.3249137,44.7894226 L17.9267553,44.7894226 C16.9800477,44.7894226 16.2124696,44.0218445 16.2124696,43.0751369 C16.2124696,42.1284292 16.9800477,41.3608512 17.9267553,41.3608512 L17.9267553,41.3608512 L23.3249137,41.3608512 L18.5696124,37.5547685 C17.8304941,36.9638088 17.7107956,35.8840096 18.3025923,35.1448914 Z M52.8553267,34.8795453 C53.5944451,34.2877486 54.6742441,34.4074471 55.265204,35.1465654 C55.8570007,35.8856838 55.7373022,36.9654828 54.9981839,37.5564427 L54.9981839,37.5564427 L50.2428826,41.3608512 L55.641041,41.3608512 C56.5877487,41.3608512 57.3553267,42.1284292 57.3553267,43.0751369 C57.3553267,44.0218445 56.5877487,44.7894226 55.641041,44.7894226 L55.641041,44.7894226 L50.2428826,44.7894226 L54.9981839,48.593831 C55.7373022,49.1847909 55.8570007,50.2645899 55.265204,51.0037083 C54.6742441,51.7428267 53.5944451,51.8625252 52.8553267,51.2707284 L52.8553267,51.2707284 L44.2838982,44.4135856 C44.2596237,44.3951703 44.251253,44.3658736 44.2286527,44.3457843 C44.1056058,44.2311078 44.0001369,44.0988534 43.9172686,43.953206 C43.875416,43.8979606 43.8369114,43.8410409 43.8025923,43.7816101 C43.5874696,43.3354606 43.5874696,42.8148132 43.8025923,42.3686637 C43.8369114,42.3092328 43.875416,42.2523132 43.9172686,42.1970677 C44.0001369,42.0514203 44.1056058,41.9191659 44.2286527,41.8044894 C44.251253,41.7844002 44.2596237,41.7551034 44.2838982,41.7366882 L44.2838982,41.7366882 Z M23.0696124,6.29835115 L6.42898744,24.217994 L23.0696124,24.217994 L23.0696124,6.29835115 Z" id="path-1"></path>
    </defs>
    <g id="MVP---WISP-Light" stroke="none" stroke-width="1" fill="none" fill-rule="evenodd">
        <g id="03.-Thankyou-page---KO" transform="translate(-603.000000, -215.000000)">
            <g id="ThankYou" transform="translate(452.000000, 215.000000)">
                <g id="pictograms/paymentcompleted" transform="translate(151.000000, 0.000000)">
                    <g id="colors/@aqua" transform="translate(0.216102, 0.782006)">
                        <mask id="mask-2" fill="white">
                            <use xlink:href="#path-1"></use>
                        </mask>
                        <g id="Mask" fill-rule="nonzero"></g>
                        <g mask="url(#mask-2)" fill="#00C5CA" id="Rectangle-Copy-9">
                            <g transform="translate(-14.400000, -11.200000)">
                                <rect x="0" y="0" width="108.8" height="112"></rect>
                            </g>
                        </g>
                    </g>
                </g>
            </g>
        </g>
    </g>
</svg>